<svg xmlns="http://www.w3.org/2000/svg" xmlns:xlink="http://www.w3.org/1999/xlink" width="500" zoomAndPan="magnify" viewBox="0 0 375 374.999991" height="500" preserveAspectRatio="xMidYMid meet" version="1.2"><defs><clipPath id="85bfc46d9e"><path d="M 58.464844 194.882812 L 242 194.882812 L 242 264.632812 L 58.464844 264.632812 Z M 58.464844 194.882812 "/></clipPath><clipPath id="42c2fa09c0"><path d="M 75.714844 194.882812 L 224.707031 194.882812 C 234.234375 194.882812 241.957031 202.605469 241.957031 212.132812 L 241.957031 247.382812 C 241.957031 256.910156 234.234375 264.632812 224.707031 264.632812 L 75.714844 264.632812 C 66.1875 264.632812 58.464844 256.910156 58.464844 247.382812 L 58.464844 212.132812 C 58.464844 202.605469 66.1875 194.882812 75.714844 194.882812 Z M 75.714844 194.882812 "/></clipPath></defs><g id="e0925afa8e"><path style=" stroke:none;fill-rule:evenodd;fill:#3dbdec;fill-opacity:1;" d="M 212.199219 67.910156 C 220.324219 67.910156 231.375 65.367188 240.785156 64.871094 C 269.730469 63.316406 299.417969 68.3125 316.390625 90.914062 C 338.246094 120.039062 327.578125 166.609375 311.550781 196.117188 C 294.015625 228.394531 273.984375 247.636719 247.558594 267.445312 C 240.671875 272.601562 237.429688 276.402344 231.308594 277.191406 C 225.972656 271.8125 218.570312 268.480469 210.398438 268.480469 C 194.125 268.480469 180.933594 281.671875 180.933594 297.945312 C 180.933594 314.21875 194.125 327.40625 210.398438 327.40625 C 226.558594 327.40625 239.679688 314.375 239.839844 298.238281 C 241.414062 297.3125 243.554688 296.097656 246.613281 294.296875 C 254.0625 289.929688 261.175781 285.609375 267.230469 281.085938 L 285.800781 265.824219 C 337.234375 222.160156 374.328125 131.878906 319.699219 81.527344 C 282.246094 47 225.007812 67.570312 212.199219 67.910156 Z M 212.199219 67.910156 "/><path style=" stroke:none;fill-rule:evenodd;fill:#1f2b5b;fill-opacity:1;" d="M 199.886719 263.035156 C 185.1875 254.253906 177.582031 253.984375 157.617188 238.792969 C 113.816406 205.523438 88.71875 146.328125 123.089844 101.875 C 149.492188 67.707031 208.394531 90.644531 219.3125 104.621094 C 220.910156 106.691406 221.945312 109.144531 222.6875 111.824219 C 221.496094 115.019531 220.84375 118.464844 220.84375 122.0625 C 220.84375 138.335938 234.03125 151.527344 250.304688 151.527344 C 266.578125 151.527344 279.769531 138.335938 279.769531 122.0625 C 279.769531 105.789062 266.578125 92.601562 250.304688 92.601562 C 247.695312 92.601562 245.152344 92.9375 242.742188 93.589844 C 240.425781 92.488281 237.363281 90.84375 233.109375 88.371094 C 218.570312 79.90625 204.410156 71.914062 184.941406 68.855469 C 162.65625 65.34375 146.835938 67.886719 129.886719 77.273438 C 65.804688 112.859375 84.960938 185.246094 132.789062 228.617188 C 146.5625 241.132812 182.757812 259.523438 199.886719 263.035156 Z M 199.886719 263.035156 "/><path style=" stroke:none;fill-rule:evenodd;fill:#3dbdec;fill-opacity:1;" d="M 165.898438 145.359375 C 133.644531 145.359375 139.609375 138.675781 139.835938 171.941406 L 165.875 172.503906 L 165.898438 198.546875 L 192.953125 198.503906 L 192.953125 172.957031 L 218.972656 172.394531 L 219.042969 145.449219 L 193.222656 145.316406 L 192.933594 119.316406 L 165.898438 119.316406 Z M 165.898438 145.359375 "/><g clip-rule="nonzero" clip-path="url(#85bfc46d9e)"><g clip-rule="nonzero" clip-path="url(#42c2fa09c0)"><path style=" stroke:none;fill-rule:nonzero;fill:#ffffff;fill-opacity:1;" d="M 58.464844 194.882812 L 241.835938 194.882812 L 241.835938 264.632812 L 58.464844 264.632812 Z M 58.464844 194.882812 "/></g></g><g style="fill:#ffffff;fill-opacity:1;"><g transform="translate(114.287308, 270.586699)"><path style="stroke:none" d="M 2.738281 -17.835938 C 3.539062 -17.835938 4.277344 -17.640625 4.953125 -17.242188 C 5.574219 -16.878906 6.089844 -16.371094 6.5 -15.722656 L 11.34375 -8.144531 L 8.777344 -6.5 L 6.203125 -8.132812 L 11.050781 -15.777344 L 11.070312 -15.808594 C 11.53125 -16.5 12.125 -17.023438 12.847656 -17.371094 C 13.492188 -17.683594 14.152344 -17.835938 14.835938 -17.835938 C 15.371094 -17.835938 15.886719 -17.746094 16.378906 -17.5625 C 16.867188 -17.382812 17.3125 -17.117188 17.71875 -16.773438 C 18.226562 -16.339844 18.605469 -15.816406 18.859375 -15.199219 C 19.074219 -14.667969 19.183594 -14.097656 19.183594 -13.488281 L 19.183594 -1.207031 C 19.183594 -0.539062 19.046875 0.0820312 18.765625 0.65625 C 18.457031 1.289062 18.007812 1.808594 17.417969 2.214844 C 16.601562 2.769531 15.71875 3.046875 14.765625 3.046875 C 13.753906 3.046875 12.839844 2.746094 12.03125 2.144531 C 11.46875 1.730469 11.046875 1.203125 10.761719 0.570312 C 10.515625 0.0195312 10.394531 -0.570312 10.394531 -1.207031 L 10.394531 -9.03125 L 13.441406 -9.03125 L 16.011719 -7.390625 L 12.550781 -1.980469 L 9.984375 -3.621094 L 12.671875 -2.1875 C 12.238281 -1.371094 11.609375 -0.761719 10.785156 -0.367188 C 10.144531 -0.0546875 9.472656 0.101562 8.777344 0.101562 C 8.023438 0.101562 7.296875 -0.0898438 6.601562 -0.472656 C 5.832031 -0.894531 5.242188 -1.492188 4.832031 -2.257812 L 7.523438 -3.691406 L 4.957031 -2.042969 L 1.542969 -7.363281 L 4.109375 -9.007812 L 7.15625 -9.007812 L 7.15625 -1.207031 C 7.15625 -0.546875 7.023438 0.0625 6.757812 0.628906 C 6.457031 1.261719 6.015625 1.785156 5.433594 2.191406 C 4.621094 2.761719 3.730469 3.046875 2.761719 3.046875 C 1.765625 3.046875 0.859375 2.753906 0.0507812 2.167969 C -0.523438 1.757812 -0.953125 1.234375 -1.246094 0.597656 C -1.503906 0.0429688 -1.632812 -0.558594 -1.632812 -1.207031 L -1.632812 -13.464844 C -1.632812 -14.078125 -1.519531 -14.652344 -1.292969 -15.191406 C -1.042969 -15.777344 -0.679688 -16.285156 -0.199219 -16.710938 C 0.207031 -17.070312 0.652344 -17.34375 1.140625 -17.539062 C 1.652344 -17.738281 2.183594 -17.835938 2.738281 -17.835938 Z M 2.738281 -11.742188 C 2.953125 -11.742188 3.164062 -11.78125 3.367188 -11.863281 C 3.550781 -11.933594 3.710938 -12.027344 3.84375 -12.148438 C 4.054688 -12.332031 4.214844 -12.558594 4.328125 -12.824219 C 4.417969 -13.042969 4.464844 -13.257812 4.464844 -13.464844 L 4.464844 -1.207031 C 4.464844 -1.453125 4.40625 -1.703125 4.289062 -1.957031 C 4.136719 -2.289062 3.910156 -2.5625 3.617188 -2.773438 C 3.363281 -2.957031 3.078125 -3.046875 2.761719 -3.046875 C 2.445312 -3.046875 2.167969 -2.964844 1.925781 -2.796875 C 1.632812 -2.589844 1.40625 -2.320312 1.246094 -1.984375 C 1.125 -1.722656 1.0625 -1.464844 1.0625 -1.207031 L 1.0625 -19.402344 L 10.15625 -5.234375 L 10.210938 -5.125 C 10.050781 -5.429688 9.824219 -5.660156 9.535156 -5.820312 C 9.316406 -5.9375 9.066406 -5.996094 8.777344 -5.996094 C 8.542969 -5.996094 8.328125 -5.949219 8.136719 -5.855469 C 7.761719 -5.675781 7.480469 -5.410156 7.292969 -5.054688 L 7.351562 -5.164062 L 16.492188 -19.457031 L 16.492188 -1.207031 C 16.492188 -1.441406 16.4375 -1.679688 16.324219 -1.925781 C 16.175781 -2.257812 15.957031 -2.535156 15.667969 -2.75 C 15.398438 -2.949219 15.097656 -3.046875 14.765625 -3.046875 C 14.460938 -3.046875 14.199219 -2.972656 13.972656 -2.816406 C 13.675781 -2.613281 13.445312 -2.347656 13.285156 -2.015625 C 13.152344 -1.742188 13.085938 -1.476562 13.085938 -1.207031 L 13.085938 -13.488281 C 13.085938 -13.296875 13.128906 -13.097656 13.214844 -12.886719 C 13.335938 -12.59375 13.519531 -12.339844 13.761719 -12.132812 C 13.90625 -12.011719 14.070312 -11.917969 14.253906 -11.847656 C 14.445312 -11.777344 14.640625 -11.742188 14.835938 -11.742188 C 15.082031 -11.742188 15.304688 -11.789062 15.5 -11.882812 C 15.773438 -12.015625 15.988281 -12.195312 16.140625 -12.425781 L 13.605469 -14.117188 L 16.179688 -12.484375 L 8.785156 -0.824219 L 1.347656 -12.460938 C 1.464844 -12.277344 1.636719 -12.121094 1.863281 -11.988281 C 2.140625 -11.824219 2.433594 -11.742188 2.738281 -11.742188 Z M 2.738281 -11.742188 "/></g></g><g style="fill:#ffffff;fill-opacity:1;"><g transform="translate(135.72836, 270.586699)"><path style="stroke:none" d="M 18.71875 -7.382812 C 18.71875 -5.347656 18.28125 -3.527344 17.40625 -1.925781 C 16.5 -0.269531 15.226562 1.019531 13.589844 1.9375 C 11.996094 2.832031 10.175781 3.28125 8.125 3.28125 C 6.082031 3.28125 4.261719 2.835938 2.65625 1.945312 C 1 1.03125 -0.285156 -0.257812 -1.203125 -1.914062 C -2.09375 -3.515625 -2.539062 -5.339844 -2.539062 -7.382812 C -2.539062 -9.441406 -2.09375 -11.273438 -1.203125 -12.878906 C -0.285156 -14.53125 1 -15.820312 2.65625 -16.734375 C 4.261719 -17.625 6.082031 -18.070312 8.125 -18.070312 C 10.175781 -18.070312 11.996094 -17.621094 13.589844 -16.726562 C 15.226562 -15.808594 16.5 -14.519531 17.40625 -12.863281 C 18.28125 -11.261719 18.71875 -9.433594 18.71875 -7.382812 Z M 12.621094 -7.382812 C 12.621094 -8.394531 12.433594 -9.246094 12.058594 -9.9375 C 11.710938 -10.570312 11.226562 -11.0625 10.601562 -11.410156 C 9.9375 -11.785156 9.109375 -11.972656 8.125 -11.972656 C 7.132812 -11.972656 6.296875 -11.78125 5.609375 -11.402344 C 4.976562 -11.050781 4.480469 -10.558594 4.128906 -9.921875 C 3.75 -9.234375 3.558594 -8.390625 3.558594 -7.382812 C 3.558594 -6.390625 3.75 -5.554688 4.128906 -4.867188 C 4.480469 -4.230469 4.976562 -3.738281 5.609375 -3.386719 C 6.296875 -3.007812 7.132812 -2.816406 8.125 -2.816406 C 9.109375 -2.816406 9.9375 -3.003906 10.601562 -3.378906 C 11.226562 -3.726562 11.710938 -4.21875 12.058594 -4.851562 C 12.433594 -5.542969 12.621094 -6.386719 12.621094 -7.382812 Z M 8.125 -5.183594 C 8.527344 -5.183594 8.84375 -5.253906 9.074219 -5.398438 C 9.304688 -5.539062 9.492188 -5.75 9.636719 -6.027344 C 9.816406 -6.382812 9.90625 -6.835938 9.90625 -7.382812 C 9.90625 -7.949219 9.816406 -8.40625 9.636719 -8.761719 C 9.492188 -9.039062 9.304688 -9.25 9.074219 -9.390625 C 8.84375 -9.535156 8.527344 -9.605469 8.125 -9.605469 C 7.714844 -9.605469 7.382812 -9.527344 7.128906 -9.378906 C 6.894531 -9.238281 6.707031 -9.03125 6.570312 -8.761719 C 6.390625 -8.40625 6.300781 -7.949219 6.300781 -7.382812 C 6.300781 -6.835938 6.390625 -6.382812 6.570312 -6.027344 C 6.707031 -5.757812 6.894531 -5.554688 7.128906 -5.410156 C 7.382812 -5.261719 7.714844 -5.183594 8.125 -5.183594 Z M 8.125 0.914062 C 6.589844 0.914062 5.210938 0.546875 3.992188 -0.183594 C 2.757812 -0.925781 1.804688 -1.949219 1.136719 -3.257812 C 0.515625 -4.484375 0.203125 -5.859375 0.203125 -7.382812 C 0.203125 -8.921875 0.515625 -10.304688 1.136719 -11.53125 C 1.804688 -12.839844 2.757812 -13.863281 3.992188 -14.605469 C 5.210938 -15.335938 6.589844 -15.703125 8.125 -15.703125 C 9.675781 -15.703125 11.054688 -15.332031 12.261719 -14.589844 C 13.46875 -13.851562 14.40625 -12.832031 15.066406 -11.53125 C 15.691406 -10.304688 16.003906 -8.921875 16.003906 -7.382812 C 16.003906 -5.859375 15.691406 -4.484375 15.066406 -3.257812 C 14.40625 -1.960938 13.46875 -0.9375 12.261719 -0.199219 C 11.054688 0.542969 9.675781 0.914062 8.125 0.914062 Z M 8.125 0.914062 "/></g></g><g style="fill:#ffffff;fill-opacity:1;"><g transform="translate(155.846954, 270.586699)"><path style="stroke:none" d="M 8.140625 -13.652344 C 8.140625 -14.347656 8.300781 -14.988281 8.613281 -15.578125 C 8.941406 -16.1875 9.402344 -16.683594 10 -17.066406 C 10.800781 -17.582031 11.671875 -17.835938 12.605469 -17.835938 C 13.570312 -17.835938 14.441406 -17.582031 15.222656 -17.070312 C 15.839844 -16.664062 16.304688 -16.128906 16.613281 -15.460938 C 16.871094 -14.90625 17.003906 -14.304688 17.003906 -13.652344 L 17.003906 -1.394531 C 17.003906 -0.710938 16.867188 -0.078125 16.59375 0.503906 C 16.285156 1.164062 15.835938 1.707031 15.238281 2.132812 C 14.382812 2.742188 13.4375 3.046875 12.398438 3.046875 C 11.667969 3.046875 10.964844 2.886719 10.289062 2.558594 C 9.601562 2.222656 9.035156 1.765625 8.589844 1.183594 L 1.492188 -7.949219 L 3.902344 -9.820312 L 6.941406 -10.039062 L 7.042969 -8.628906 L 7.042969 -1.230469 C 7.042969 -0.570312 6.914062 0.0390625 6.660156 0.597656 C 6.351562 1.273438 5.886719 1.820312 5.269531 2.234375 C 4.46875 2.777344 3.585938 3.046875 2.625 3.046875 C 1.644531 3.046875 0.753906 2.777344 -0.046875 2.234375 C -0.664062 1.820312 -1.125 1.273438 -1.433594 0.597656 C -1.691406 0.0390625 -1.816406 -0.570312 -1.816406 -1.230469 L -1.816406 -13.371094 C -1.816406 -14.003906 -1.707031 -14.589844 -1.484375 -15.132812 C -1.222656 -15.777344 -0.828125 -16.320312 -0.296875 -16.765625 C 0.117188 -17.117188 0.578125 -17.382812 1.078125 -17.5625 C 1.578125 -17.746094 2.101562 -17.835938 2.648438 -17.835938 C 3.46875 -17.835938 4.210938 -17.652344 4.882812 -17.28125 C 5.441406 -16.96875 5.9375 -16.542969 6.375 -15.996094 L 13.699219 -6.480469 L 11.285156 -4.621094 L 8.242188 -4.4375 L 8.140625 -6.085938 Z M 14.238281 -13.652344 L 14.238281 -6.175781 L 11.191406 -6.175781 L 14.234375 -6.355469 L 14.917969 5.101562 L 1.613281 -12.1875 C 1.675781 -12.109375 1.78125 -12.027344 1.921875 -11.949219 C 2.171875 -11.808594 2.414062 -11.742188 2.648438 -11.742188 C 2.820312 -11.742188 2.992188 -11.773438 3.164062 -11.835938 C 3.335938 -11.898438 3.488281 -11.984375 3.617188 -12.09375 C 3.863281 -12.296875 4.042969 -12.546875 4.160156 -12.835938 C 4.238281 -13.027344 4.277344 -13.207031 4.277344 -13.371094 L 4.277344 -1.230469 C 4.277344 -1.457031 4.222656 -1.691406 4.109375 -1.9375 C 3.945312 -2.300781 3.695312 -2.59375 3.367188 -2.816406 C 3.136719 -2.972656 2.890625 -3.046875 2.625 -3.046875 C 2.339844 -3.046875 2.085938 -2.972656 1.855469 -2.816406 C 1.527344 -2.59375 1.277344 -2.300781 1.113281 -1.9375 C 1 -1.691406 0.945312 -1.457031 0.945312 -1.230469 L 0.945312 -8.519531 L 3.992188 -8.519531 L 0.953125 -8.304688 L 0.144531 -19.628906 L 13.421875 -2.53125 C 13.285156 -2.710938 13.125 -2.84375 12.949219 -2.929688 C 12.785156 -3.007812 12.601562 -3.046875 12.398438 -3.046875 C 12.132812 -3.046875 11.898438 -2.976562 11.695312 -2.828125 C 11.421875 -2.632812 11.214844 -2.382812 11.070312 -2.074219 C 10.960938 -1.839844 10.90625 -1.613281 10.90625 -1.394531 L 10.90625 -13.652344 C 10.90625 -13.402344 10.964844 -13.144531 11.089844 -12.882812 C 11.265625 -12.503906 11.527344 -12.203125 11.871094 -11.972656 C 12.109375 -11.820312 12.355469 -11.742188 12.605469 -11.742188 C 12.863281 -11.742188 13.089844 -11.804688 13.289062 -11.933594 C 13.582031 -12.121094 13.820312 -12.378906 13.992188 -12.707031 C 14.15625 -13.011719 14.238281 -13.328125 14.238281 -13.652344 Z M 14.238281 -13.652344 "/></g></g><g style="fill:#ffffff;fill-opacity:1;"><g transform="translate(174.7127, 270.586699)"><path style="stroke:none" d="M -2.003906 -13.535156 C -2.003906 -14.179688 -1.882812 -14.773438 -1.640625 -15.324219 C -1.351562 -15.988281 -0.910156 -16.535156 -0.320312 -16.957031 C 0.488281 -17.542969 1.394531 -17.835938 2.390625 -17.835938 C 3.375 -17.835938 4.273438 -17.550781 5.085938 -16.980469 C 5.683594 -16.5625 6.132812 -16.019531 6.433594 -15.351562 C 6.683594 -14.796875 6.808594 -14.191406 6.808594 -13.535156 L 6.808594 -1.183594 C 6.808594 -0.523438 6.671875 0.09375 6.394531 0.660156 C 6.09375 1.28125 5.65625 1.789062 5.085938 2.191406 C 4.273438 2.761719 3.375 3.046875 2.390625 3.046875 C 1.414062 3.046875 0.523438 2.769531 -0.277344 2.214844 C -0.867188 1.804688 -1.3125 1.277344 -1.613281 0.632812 C -1.875 0.0742188 -2.003906 -0.53125 -2.003906 -1.183594 Z M 4.09375 -13.535156 L 4.09375 -1.183594 C 4.09375 -1.433594 4.03125 -1.691406 3.910156 -1.949219 C 3.75 -2.296875 3.511719 -2.578125 3.203125 -2.792969 C 2.957031 -2.964844 2.6875 -3.046875 2.390625 -3.046875 C 2.089844 -3.046875 1.816406 -2.964844 1.578125 -2.796875 C 1.292969 -2.59375 1.070312 -2.332031 0.914062 -2.007812 C 0.777344 -1.734375 0.710938 -1.460938 0.710938 -1.183594 L 0.710938 -13.535156 C 0.710938 -13.316406 0.765625 -13.085938 0.875 -12.84375 C 1.03125 -12.496094 1.265625 -12.210938 1.578125 -11.992188 C 1.816406 -11.824219 2.089844 -11.742188 2.390625 -11.742188 C 2.707031 -11.742188 2.992188 -11.832031 3.246094 -12.015625 C 3.558594 -12.238281 3.789062 -12.523438 3.941406 -12.871094 C 4.042969 -13.105469 4.09375 -13.324219 4.09375 -13.535156 Z M 4.09375 -13.535156 "/></g></g><g style="fill:#ffffff;fill-opacity:1;"><g transform="translate(182.650708, 270.586699)"><path style="stroke:none" d="M 12.027344 -17.835938 C 12.609375 -17.835938 13.152344 -17.746094 13.660156 -17.5625 C 14.285156 -17.332031 14.824219 -16.980469 15.273438 -16.503906 C 15.640625 -16.109375 15.921875 -15.675781 16.125 -15.195312 C 16.335938 -14.679688 16.445312 -14.144531 16.445312 -13.582031 C 16.445312 -13.019531 16.332031 -12.476562 16.109375 -11.957031 C 15.914062 -11.492188 15.632812 -11.070312 15.273438 -10.683594 C 14.824219 -10.207031 14.285156 -9.851562 13.660156 -9.625 C 13.152344 -9.441406 12.609375 -9.347656 12.027344 -9.347656 L 7.707031 -9.347656 L 7.707031 -12.398438 L 10.757812 -12.402344 L 10.78125 -1.238281 C 10.78125 -0.554688 10.640625 0.0742188 10.359375 0.652344 C 10.042969 1.300781 9.578125 1.828125 8.96875 2.234375 C 8.15625 2.777344 7.285156 3.046875 6.363281 3.046875 C 5.394531 3.046875 4.503906 2.761719 3.691406 2.191406 C 3.101562 1.777344 2.65625 1.246094 2.355469 0.59375 C 2.097656 0.0351562 1.964844 -0.574219 1.964844 -1.230469 L 1.964844 -12.398438 L 5.015625 -12.398438 L 5.015625 -9.347656 L 0.71875 -9.347656 C 0.125 -9.347656 -0.425781 -9.445312 -0.9375 -9.636719 C -1.597656 -9.886719 -2.152344 -10.273438 -2.597656 -10.804688 C -2.921875 -11.1875 -3.171875 -11.605469 -3.347656 -12.0625 C -3.535156 -12.550781 -3.628906 -13.054688 -3.628906 -13.582031 C -3.628906 -14.105469 -3.539062 -14.609375 -3.355469 -15.09375 C -3.179688 -15.5625 -2.929688 -15.992188 -2.597656 -16.382812 C -2.152344 -16.914062 -1.597656 -17.300781 -0.9375 -17.550781 C -0.425781 -17.742188 0.125 -17.835938 0.71875 -17.835938 Z M 12.027344 -11.742188 L 0.71875 -11.742188 C 0.863281 -11.742188 1.027344 -11.773438 1.210938 -11.84375 C 1.542969 -11.96875 1.824219 -12.171875 2.0625 -12.453125 C 2.183594 -12.597656 2.28125 -12.761719 2.351562 -12.953125 C 2.429688 -13.160156 2.46875 -13.367188 2.46875 -13.582031 C 2.46875 -13.8125 2.425781 -14.039062 2.34375 -14.253906 C 2.273438 -14.4375 2.179688 -14.597656 2.0625 -14.734375 C 1.824219 -15.015625 1.542969 -15.21875 1.210938 -15.34375 C 1.027344 -15.414062 0.863281 -15.445312 0.71875 -15.445312 L 8.0625 -15.445312 L 8.0625 -1.230469 C 8.0625 -1.46875 8.003906 -1.714844 7.890625 -1.964844 C 7.730469 -2.304688 7.5 -2.582031 7.195312 -2.796875 C 6.957031 -2.964844 6.679688 -3.046875 6.363281 -3.046875 C 6.054688 -3.046875 5.796875 -2.980469 5.585938 -2.839844 C 5.28125 -2.632812 5.042969 -2.359375 4.878906 -2.019531 C 4.746094 -1.753906 4.683594 -1.488281 4.683594 -1.222656 L 4.652344 -15.445312 L 12.027344 -15.445312 C 11.894531 -15.445312 11.742188 -15.417969 11.578125 -15.355469 C 11.289062 -15.25 11.039062 -15.085938 10.824219 -14.855469 C 10.695312 -14.71875 10.589844 -14.550781 10.507812 -14.359375 C 10.402344 -14.109375 10.347656 -13.851562 10.347656 -13.582031 C 10.347656 -13.332031 10.398438 -13.085938 10.496094 -12.851562 C 10.578125 -12.648438 10.6875 -12.476562 10.824219 -12.332031 C 11.039062 -12.101562 11.289062 -11.933594 11.578125 -11.832031 C 11.742188 -11.769531 11.894531 -11.742188 12.027344 -11.742188 Z M 12.027344 -11.742188 "/></g></g><g style="fill:#ffffff;fill-opacity:1;"><g transform="translate(199.149917, 270.586699)"><path style="stroke:none" d="M 18.71875 -7.382812 C 18.71875 -5.347656 18.28125 -3.527344 17.40625 -1.925781 C 16.5 -0.269531 15.226562 1.019531 13.589844 1.9375 C 11.996094 2.832031 10.175781 3.28125 8.125 3.28125 C 6.082031 3.28125 4.261719 2.835938 2.65625 1.945312 C 1 1.03125 -0.285156 -0.257812 -1.203125 -1.914062 C -2.09375 -3.515625 -2.539062 -5.339844 -2.539062 -7.382812 C -2.539062 -9.441406 -2.09375 -11.273438 -1.203125 -12.878906 C -0.285156 -14.53125 1 -15.820312 2.65625 -16.734375 C 4.261719 -17.625 6.082031 -18.070312 8.125 -18.070312 C 10.175781 -18.070312 11.996094 -17.621094 13.589844 -16.726562 C 15.226562 -15.808594 16.5 -14.519531 17.40625 -12.863281 C 18.28125 -11.261719 18.71875 -9.433594 18.71875 -7.382812 Z M 12.621094 -7.382812 C 12.621094 -8.394531 12.433594 -9.246094 12.058594 -9.9375 C 11.710938 -10.570312 11.226562 -11.0625 10.601562 -11.410156 C 9.9375 -11.785156 9.109375 -11.972656 8.125 -11.972656 C 7.132812 -11.972656 6.296875 -11.78125 5.609375 -11.402344 C 4.976562 -11.050781 4.480469 -10.558594 4.128906 -9.921875 C 3.75 -9.234375 3.558594 -8.390625 3.558594 -7.382812 C 3.558594 -6.390625 3.75 -5.554688 4.128906 -4.867188 C 4.480469 -4.230469 4.976562 -3.738281 5.609375 -3.386719 C 6.296875 -3.007812 7.132812 -2.816406 8.125 -2.816406 C 9.109375 -2.816406 9.9375 -3.003906 10.601562 -3.378906 C 11.226562 -3.726562 11.710938 -4.21875 12.058594 -4.851562 C 12.433594 -5.542969 12.621094 -6.386719 12.621094 -7.382812 Z M 8.125 -5.183594 C 8.527344 -5.183594 8.84375 -5.253906 9.074219 -5.398438 C 9.304688 -5.539062 9.492188 -5.75 9.636719 -6.027344 C 9.816406 -6.382812 9.90625 -6.835938 9.90625 -7.382812 C 9.90625 -7.949219 9.816406 -8.40625 9.636719 -8.761719 C 9.492188 -9.039062 9.304688 -9.25 9.074219 -9.390625 C 8.84375 -9.535156 8.527344 -9.605469 8.125 -9.605469 C 7.714844 -9.605469 7.382812 -9.527344 7.128906 -9.378906 C 6.894531 -9.238281 6.707031 -9.03125 6.570312 -8.761719 C 6.390625 -8.40625 6.300781 -7.949219 6.300781 -7.382812 C 6.300781 -6.835938 6.390625 -6.382812 6.570312 -6.027344 C 6.707031 -5.757812 6.894531 -5.554688 7.128906 -5.410156 C 7.382812 -5.261719 7.714844 -5.183594 8.125 -5.183594 Z M 8.125 0.914062 C 6.589844 0.914062 5.210938 0.546875 3.992188 -0.183594 C 2.757812 -0.925781 1.804688 -1.949219 1.136719 -3.257812 C 0.515625 -4.484375 0.203125 -5.859375 0.203125 -7.382812 C 0.203125 -8.921875 0.515625 -10.304688 1.136719 -11.53125 C 1.804688 -12.839844 2.757812 -13.863281 3.992188 -14.605469 C 5.210938 -15.335938 6.589844 -15.703125 8.125 -15.703125 C 9.675781 -15.703125 11.054688 -15.332031 12.261719 -14.589844 C 13.46875 -13.851562 14.40625 -12.832031 15.066406 -11.53125 C 15.691406 -10.304688 16.003906 -8.921875 16.003906 -7.382812 C 16.003906 -5.859375 15.691406 -4.484375 15.066406 -3.257812 C 14.40625 -1.960938 13.46875 -0.9375 12.261719 -0.199219 C 11.054688 0.542969 9.675781 0.914062 8.125 0.914062 Z M 8.125 0.914062 "/></g></g><g style="fill:#ffffff;fill-opacity:1;"><g transform="translate(219.268512, 270.586699)"><path style="stroke:none" d="M 15.597656 -4.382812 C 16.003906 -3.960938 16.320312 -3.507812 16.546875 -3.03125 C 16.847656 -2.394531 16.984375 -1.738281 16.953125 -1.058594 C 16.925781 -0.488281 16.796875 0.046875 16.566406 0.554688 C 16.328125 1.074219 15.992188 1.53125 15.558594 1.921875 C 15.164062 2.28125 14.726562 2.554688 14.242188 2.75 C 13.753906 2.945312 13.246094 3.046875 12.710938 3.058594 C 12.058594 3.074219 11.429688 2.9375 10.835938 2.652344 C 10.34375 2.414062 9.894531 2.082031 9.492188 1.660156 L 5.320312 -2.789062 L 7.546875 -4.875 L 7.546875 -1.828125 L 4.039062 -1.828125 L 4.039062 -4.875 L 7.089844 -4.875 L 7.089844 -1.207031 C 7.089844 -0.550781 6.953125 0.0585938 6.679688 0.625 C 6.386719 1.234375 5.964844 1.742188 5.40625 2.148438 C 4.585938 2.75 3.679688 3.046875 2.691406 3.046875 C 1.695312 3.046875 0.789062 2.753906 -0.0195312 2.167969 C -0.582031 1.761719 -1.011719 1.25 -1.304688 0.632812 C -1.570312 0.0703125 -1.703125 -0.535156 -1.703125 -1.183594 L -1.703125 -13.582031 C -1.703125 -14.1875 -1.585938 -14.757812 -1.347656 -15.292969 C -1.101562 -15.851562 -0.75 -16.332031 -0.28125 -16.742188 C 0.140625 -17.117188 0.621094 -17.394531 1.15625 -17.582031 C 1.644531 -17.753906 2.15625 -17.835938 2.691406 -17.835938 L 7.871094 -17.835938 C 9.730469 -17.835938 11.332031 -17.511719 12.679688 -16.859375 C 14.144531 -16.152344 15.265625 -15.164062 16.042969 -13.898438 C 16.804688 -12.648438 17.1875 -11.277344 17.1875 -9.773438 C 17.1875 -8.039062 16.707031 -6.5 15.75 -5.160156 C 14.757812 -3.769531 13.324219 -2.804688 11.449219 -2.269531 L 10.609375 -5.199219 L 12.816406 -7.304688 L 15.605469 -4.378906 Z M 11.1875 -0.171875 L 4.925781 -6.746094 L 9.773438 -8.132812 C 10.28125 -8.277344 10.621094 -8.46875 10.789062 -8.703125 C 10.988281 -8.984375 11.089844 -9.34375 11.089844 -9.773438 C 11.089844 -10.128906 11.007812 -10.441406 10.84375 -10.714844 C 10.691406 -10.960938 10.417969 -11.183594 10.027344 -11.371094 C 9.515625 -11.617188 8.796875 -11.742188 7.871094 -11.742188 L 2.691406 -11.742188 C 2.84375 -11.742188 3.003906 -11.769531 3.167969 -11.828125 C 3.382812 -11.902344 3.574219 -12.011719 3.742188 -12.164062 C 3.953125 -12.347656 4.117188 -12.574219 4.234375 -12.839844 C 4.339844 -13.085938 4.394531 -13.332031 4.394531 -13.582031 L 4.394531 -1.183594 C 4.394531 -1.449219 4.332031 -1.710938 4.207031 -1.976562 C 4.050781 -2.304688 3.832031 -2.566406 3.550781 -2.773438 C 3.296875 -2.957031 3.011719 -3.046875 2.691406 -3.046875 C 2.355469 -3.046875 2.0625 -2.957031 1.8125 -2.777344 C 1.542969 -2.578125 1.335938 -2.324219 1.183594 -2.015625 C 1.054688 -1.746094 0.992188 -1.476562 0.992188 -1.207031 L 0.992188 -7.925781 L 8.867188 -7.925781 L 13.910156 -2.539062 C 13.800781 -2.65625 13.660156 -2.757812 13.480469 -2.84375 C 13.195312 -2.980469 12.894531 -3.042969 12.570312 -3.035156 C 12.371094 -3.03125 12.171875 -2.988281 11.976562 -2.910156 C 11.78125 -2.835938 11.613281 -2.730469 11.464844 -2.59375 C 11.28125 -2.429688 11.132812 -2.226562 11.027344 -1.992188 C 10.925781 -1.773438 10.871094 -1.554688 10.863281 -1.332031 C 10.847656 -1 10.90625 -0.699219 11.035156 -0.421875 C 11.089844 -0.304688 11.144531 -0.21875 11.195312 -0.164062 Z M 4.039062 -10.175781 L 7.894531 -10.175781 C 8.226562 -10.175781 8.484375 -10.203125 8.664062 -10.253906 C 8.679688 -10.257812 8.695312 -10.261719 8.707031 -10.269531 C 8.707031 -10.269531 8.703125 -10.265625 8.699219 -10.261719 C 8.65625 -10.242188 8.609375 -10.207031 8.5625 -10.164062 C 8.527344 -10.132812 8.492188 -10.074219 8.453125 -9.984375 C 8.398438 -9.859375 8.371094 -9.734375 8.378906 -9.617188 L 8.375 -9.65625 L 8.375 -9.691406 C 8.375 -9.625 8.398438 -9.546875 8.441406 -9.464844 C 8.472656 -9.394531 8.503906 -9.347656 8.53125 -9.328125 C 8.542969 -9.316406 8.550781 -9.308594 8.558594 -9.308594 C 8.546875 -9.3125 8.523438 -9.320312 8.492188 -9.332031 C 8.347656 -9.375 8.148438 -9.394531 7.894531 -9.394531 L 4.039062 -9.394531 L 4.039062 -12.445312 L 7.089844 -12.445312 L 7.089844 -7.128906 L 4.039062 -7.128906 Z M 0.992188 -4.078125 L 0.992188 -15.492188 L 7.894531 -15.492188 C 9.722656 -15.492188 11.230469 -15.003906 12.410156 -14.03125 C 13.054688 -13.496094 13.554688 -12.875 13.90625 -12.164062 C 14.265625 -11.4375 14.453125 -10.652344 14.472656 -9.8125 L 11.421875 -9.75 L 14.46875 -9.882812 C 14.503906 -9.054688 14.359375 -8.269531 14.03125 -7.527344 C 13.722656 -6.824219 13.265625 -6.195312 12.65625 -5.644531 C 11.503906 -4.601562 9.914062 -4.078125 7.894531 -4.078125 Z M 0.992188 -4.078125 "/></g></g><g style="fill:#1f2b5b;fill-opacity:1;"><g transform="translate(114.287308, 270.586699)"><path style="stroke:none" d="M 2.734375 -14.796875 C 3.234375 -14.796875 3.628906 -14.5625 3.921875 -14.09375 L 8.78125 -6.5 L 13.609375 -14.109375 C 13.765625 -14.347656 13.953125 -14.519531 14.171875 -14.625 C 14.398438 -14.738281 14.625 -14.796875 14.84375 -14.796875 C 15.175781 -14.796875 15.472656 -14.679688 15.734375 -14.453125 C 16.003906 -14.222656 16.140625 -13.898438 16.140625 -13.484375 L 16.140625 -1.203125 C 16.140625 -0.804688 15.988281 -0.503906 15.6875 -0.296875 C 15.394531 -0.0976562 15.085938 0 14.765625 0 C 14.421875 0 14.113281 -0.0976562 13.84375 -0.296875 C 13.570312 -0.503906 13.4375 -0.804688 13.4375 -1.203125 L 13.4375 -9.03125 L 9.984375 -3.625 C 9.859375 -3.394531 9.679688 -3.222656 9.453125 -3.109375 C 9.234375 -3.003906 9.007812 -2.953125 8.78125 -2.953125 C 8.539062 -2.953125 8.300781 -3.015625 8.0625 -3.140625 C 7.820312 -3.273438 7.640625 -3.457031 7.515625 -3.6875 L 4.109375 -9.015625 L 4.109375 -1.203125 C 4.109375 -0.804688 3.960938 -0.503906 3.671875 -0.296875 C 3.390625 -0.0976562 3.085938 0 2.765625 0 C 2.421875 0 2.109375 -0.0976562 1.828125 -0.296875 C 1.554688 -0.503906 1.421875 -0.804688 1.421875 -1.203125 L 1.421875 -13.46875 C 1.421875 -13.875 1.554688 -14.195312 1.828125 -14.4375 C 2.097656 -14.675781 2.398438 -14.796875 2.734375 -14.796875 Z M 2.734375 -14.796875 "/></g></g><g style="fill:#1f2b5b;fill-opacity:1;"><g transform="translate(135.72836, 270.586699)"><path style="stroke:none" d="M 15.671875 -7.390625 C 15.671875 -5.867188 15.359375 -4.535156 14.734375 -3.390625 C 14.109375 -2.242188 13.226562 -1.351562 12.09375 -0.71875 C 10.96875 -0.0820312 9.644531 0.234375 8.125 0.234375 C 6.601562 0.234375 5.269531 -0.0820312 4.125 -0.71875 C 2.988281 -1.351562 2.101562 -2.242188 1.46875 -3.390625 C 0.832031 -4.535156 0.515625 -5.867188 0.515625 -7.390625 C 0.515625 -8.921875 0.832031 -10.257812 1.46875 -11.40625 C 2.101562 -12.550781 2.988281 -13.4375 4.125 -14.0625 C 5.269531 -14.695312 6.601562 -15.015625 8.125 -15.015625 C 9.644531 -15.015625 10.96875 -14.695312 12.09375 -14.0625 C 13.226562 -13.4375 14.109375 -12.550781 14.734375 -11.40625 C 15.359375 -10.257812 15.671875 -8.921875 15.671875 -7.390625 Z M 8.125 -2.140625 C 9.101562 -2.140625 9.953125 -2.359375 10.671875 -2.796875 C 11.390625 -3.234375 11.945312 -3.847656 12.34375 -4.640625 C 12.75 -5.429688 12.953125 -6.347656 12.953125 -7.390625 C 12.953125 -8.441406 12.75 -9.359375 12.34375 -10.140625 C 11.945312 -10.929688 11.390625 -11.546875 10.671875 -11.984375 C 9.953125 -12.429688 9.101562 -12.65625 8.125 -12.65625 C 7.144531 -12.65625 6.285156 -12.429688 5.546875 -11.984375 C 4.816406 -11.546875 4.25 -10.929688 3.84375 -10.140625 C 3.445312 -9.359375 3.25 -8.441406 3.25 -7.390625 C 3.25 -6.347656 3.445312 -5.429688 3.84375 -4.640625 C 4.25 -3.847656 4.816406 -3.234375 5.546875 -2.796875 C 6.285156 -2.359375 7.144531 -2.140625 8.125 -2.140625 Z M 8.125 -2.140625 "/></g></g><g style="fill:#1f2b5b;fill-opacity:1;"><g transform="translate(155.846954, 270.586699)"><path style="stroke:none" d="M 11.1875 -13.65625 C 11.1875 -14.019531 11.335938 -14.300781 11.640625 -14.5 C 11.941406 -14.695312 12.265625 -14.796875 12.609375 -14.796875 C 12.960938 -14.796875 13.273438 -14.703125 13.546875 -14.515625 C 13.816406 -14.335938 13.953125 -14.050781 13.953125 -13.65625 L 13.953125 -1.390625 C 13.953125 -0.929688 13.789062 -0.582031 13.46875 -0.34375 C 13.144531 -0.113281 12.789062 0 12.40625 0 C 12.132812 0 11.867188 -0.0625 11.609375 -0.1875 C 11.359375 -0.3125 11.15625 -0.472656 11 -0.671875 L 3.90625 -9.828125 L 4 -8.515625 L 4 -1.234375 C 4 -0.796875 3.851562 -0.476562 3.5625 -0.28125 C 3.28125 -0.09375 2.96875 0 2.625 0 C 2.269531 0 1.945312 -0.09375 1.65625 -0.28125 C 1.375 -0.476562 1.234375 -0.796875 1.234375 -1.234375 L 1.234375 -13.375 C 1.234375 -13.84375 1.375 -14.195312 1.65625 -14.4375 C 1.945312 -14.675781 2.273438 -14.796875 2.640625 -14.796875 C 2.941406 -14.796875 3.195312 -14.734375 3.40625 -14.609375 C 3.613281 -14.492188 3.8125 -14.320312 4 -14.09375 L 11.28125 -4.625 L 11.1875 -6.171875 Z M 11.1875 -13.65625 "/></g></g><g style="fill:#1f2b5b;fill-opacity:1;"><g transform="translate(174.7127, 270.586699)"><path style="stroke:none" d="M 1.046875 -13.53125 C 1.046875 -13.96875 1.179688 -14.285156 1.453125 -14.484375 C 1.734375 -14.691406 2.046875 -14.796875 2.390625 -14.796875 C 2.734375 -14.796875 3.046875 -14.691406 3.328125 -14.484375 C 3.617188 -14.285156 3.765625 -13.96875 3.765625 -13.53125 L 3.765625 -1.1875 C 3.765625 -0.800781 3.617188 -0.503906 3.328125 -0.296875 C 3.046875 -0.0976562 2.734375 0 2.390625 0 C 2.046875 0 1.734375 -0.09375 1.453125 -0.28125 C 1.179688 -0.476562 1.046875 -0.78125 1.046875 -1.1875 Z M 1.046875 -13.53125 "/></g></g><g style="fill:#1f2b5b;fill-opacity:1;"><g transform="translate(182.650708, 270.586699)"><path style="stroke:none" d="M 12.03125 -14.796875 C 12.476562 -14.796875 12.816406 -14.671875 13.046875 -14.421875 C 13.273438 -14.171875 13.390625 -13.890625 13.390625 -13.578125 C 13.390625 -13.285156 13.273438 -13.015625 13.046875 -12.765625 C 12.816406 -12.523438 12.476562 -12.40625 12.03125 -12.40625 L 7.703125 -12.40625 L 7.734375 -1.234375 C 7.734375 -0.816406 7.582031 -0.503906 7.28125 -0.296875 C 6.976562 -0.0976562 6.671875 0 6.359375 0 C 6.035156 0 5.726562 -0.0976562 5.4375 -0.296875 C 5.15625 -0.503906 5.015625 -0.816406 5.015625 -1.234375 L 5.015625 -12.40625 L 0.71875 -12.40625 C 0.269531 -12.40625 -0.0546875 -12.523438 -0.265625 -12.765625 C -0.472656 -13.015625 -0.578125 -13.285156 -0.578125 -13.578125 C -0.578125 -13.890625 -0.472656 -14.171875 -0.265625 -14.421875 C -0.0546875 -14.671875 0.269531 -14.796875 0.71875 -14.796875 Z M 12.03125 -14.796875 "/></g></g><g style="fill:#1f2b5b;fill-opacity:1;"><g transform="translate(199.149917, 270.586699)"><path style="stroke:none" d="M 15.671875 -7.390625 C 15.671875 -5.867188 15.359375 -4.535156 14.734375 -3.390625 C 14.109375 -2.242188 13.226562 -1.351562 12.09375 -0.71875 C 10.96875 -0.0820312 9.644531 0.234375 8.125 0.234375 C 6.601562 0.234375 5.269531 -0.0820312 4.125 -0.71875 C 2.988281 -1.351562 2.101562 -2.242188 1.46875 -3.390625 C 0.832031 -4.535156 0.515625 -5.867188 0.515625 -7.390625 C 0.515625 -8.921875 0.832031 -10.257812 1.46875 -11.40625 C 2.101562 -12.550781 2.988281 -13.4375 4.125 -14.0625 C 5.269531 -14.695312 6.601562 -15.015625 8.125 -15.015625 C 9.644531 -15.015625 10.96875 -14.695312 12.09375 -14.0625 C 13.226562 -13.4375 14.109375 -12.550781 14.734375 -11.40625 C 15.359375 -10.257812 15.671875 -8.921875 15.671875 -7.390625 Z M 8.125 -2.140625 C 9.101562 -2.140625 9.953125 -2.359375 10.671875 -2.796875 C 11.390625 -3.234375 11.945312 -3.847656 12.34375 -4.640625 C 12.75 -5.429688 12.953125 -6.347656 12.953125 -7.390625 C 12.953125 -8.441406 12.75 -9.359375 12.34375 -10.140625 C 11.945312 -10.929688 11.390625 -11.546875 10.671875 -11.984375 C 9.953125 -12.429688 9.101562 -12.65625 8.125 -12.65625 C 7.144531 -12.65625 6.285156 -12.429688 5.546875 -11.984375 C 4.816406 -11.546875 4.25 -10.929688 3.84375 -10.140625 C 3.445312 -9.359375 3.25 -8.441406 3.25 -7.390625 C 3.25 -6.347656 3.445312 -5.429688 3.84375 -4.640625 C 4.25 -3.847656 4.816406 -3.234375 5.546875 -2.796875 C 6.285156 -2.359375 7.144531 -2.140625 8.125 -2.140625 Z M 8.125 -2.140625 "/></g></g><g style="fill:#1f2b5b;fill-opacity:1;"><g transform="translate(219.268512, 270.586699)"><path style="stroke:none" d="M 13.390625 -2.28125 C 13.753906 -1.90625 13.925781 -1.539062 13.90625 -1.1875 C 13.894531 -0.84375 13.765625 -0.554688 13.515625 -0.328125 C 13.265625 -0.109375 12.972656 0 12.640625 0 C 12.304688 0.0078125 11.992188 -0.132812 11.703125 -0.4375 L 7.546875 -4.875 L 4.046875 -4.875 L 4.046875 -1.203125 C 4.046875 -0.816406 3.898438 -0.519531 3.609375 -0.3125 C 3.328125 -0.101562 3.019531 0 2.6875 0 C 2.351562 0 2.046875 -0.0976562 1.765625 -0.296875 C 1.484375 -0.503906 1.34375 -0.800781 1.34375 -1.1875 L 1.34375 -13.578125 C 1.34375 -13.929688 1.46875 -14.222656 1.71875 -14.453125 C 1.976562 -14.679688 2.300781 -14.796875 2.6875 -14.796875 L 7.875 -14.796875 C 9.257812 -14.796875 10.414062 -14.566406 11.34375 -14.109375 C 12.28125 -13.660156 12.976562 -13.054688 13.4375 -12.296875 C 13.90625 -11.546875 14.140625 -10.707031 14.140625 -9.78125 C 14.140625 -8.695312 13.847656 -7.75 13.265625 -6.9375 C 12.691406 -6.125 11.804688 -5.546875 10.609375 -5.203125 Z M 4.046875 -7.125 L 7.890625 -7.125 C 9.128906 -7.125 10.035156 -7.382812 10.609375 -7.90625 C 11.179688 -8.425781 11.453125 -9.039062 11.421875 -9.75 C 11.410156 -10.519531 11.09375 -11.160156 10.46875 -11.671875 C 9.851562 -12.179688 8.992188 -12.4375 7.890625 -12.4375 L 4.046875 -12.4375 Z M 4.046875 -7.125 "/></g></g><g style="fill:#ffffff;fill-opacity:1;"><g transform="translate(40.337773, 245.222312)"><path style="stroke:none" d="M 10.71875 9.035156 C 8.730469 9.035156 6.886719 8.730469 5.183594 8.117188 C 3.199219 7.402344 1.480469 6.304688 0.03125 4.824219 C -1.402344 3.363281 -2.460938 1.636719 -3.148438 -0.351562 C -3.730469 -2.039062 -4.019531 -3.867188 -4.019531 -5.839844 L -4.019531 -42.597656 C -4.019531 -44.589844 -3.730469 -46.425781 -3.152344 -48.113281 C -2.457031 -50.144531 -1.375 -51.894531 0.09375 -53.363281 C 1.542969 -54.8125 3.257812 -55.886719 5.238281 -56.585938 C 6.921875 -57.179688 8.75 -57.476562 10.71875 -57.476562 C 12.703125 -57.476562 14.539062 -57.179688 16.226562 -56.589844 C 18.246094 -55.882812 19.984375 -54.785156 21.441406 -53.296875 C 22.878906 -51.828125 23.9375 -50.082031 24.617188 -48.0625 C 25.175781 -46.390625 25.457031 -44.570312 25.457031 -42.597656 L 25.457031 -29.75 L 17.039062 -29.75 L 17.039062 -38.167969 L 37.035156 -38.167969 L 37.035156 -29.75 L 28.617188 -29.75 L 28.617188 -42.597656 C 28.617188 -44.570312 28.894531 -46.390625 29.457031 -48.0625 C 30.136719 -50.082031 31.195312 -51.828125 32.632812 -53.296875 C 34.089844 -54.785156 35.828125 -55.882812 37.847656 -56.589844 C 39.535156 -57.179688 41.371094 -57.476562 43.355469 -57.476562 C 45.332031 -57.476562 47.160156 -57.175781 48.847656 -56.578125 C 50.839844 -55.867188 52.5625 -54.773438 54.007812 -53.296875 C 55.445312 -51.828125 56.503906 -50.082031 57.183594 -48.0625 C 57.746094 -46.390625 58.027344 -44.570312 58.027344 -42.597656 L 58.027344 -5.839844 C 58.027344 -3.886719 57.742188 -2.074219 57.179688 -0.402344 C 56.507812 1.578125 55.472656 3.300781 54.066406 4.761719 C 52.625 6.269531 50.902344 7.382812 48.898438 8.109375 C 47.199219 8.726562 45.351562 9.035156 43.355469 9.035156 C 41.351562 9.035156 39.5 8.734375 37.796875 8.125 C 35.769531 7.398438 34.027344 6.277344 32.574219 4.761719 C 31.167969 3.300781 30.132812 1.578125 29.460938 -0.402344 C 28.898438 -2.074219 28.617188 -3.886719 28.617188 -5.839844 L 28.617188 -19.375 L 37.035156 -19.375 L 37.035156 -10.957031 L 17.039062 -10.957031 L 17.039062 -19.375 L 25.457031 -19.375 L 25.457031 -5.839844 C 25.457031 -1.558594 24.171875 1.953125 21.597656 4.695312 C 20.140625 6.25 18.375 7.394531 16.300781 8.128906 C 14.601562 8.734375 12.738281 9.035156 10.71875 9.035156 Z M 10.71875 -7.800781 C 10.820312 -7.800781 10.890625 -7.804688 10.933594 -7.808594 C 10.867188 -7.800781 10.777344 -7.773438 10.667969 -7.734375 C 10.175781 -7.5625 9.726562 -7.257812 9.320312 -6.828125 C 9 -6.484375 8.777344 -6.125 8.652344 -5.746094 C 8.628906 -5.671875 8.613281 -5.617188 8.609375 -5.582031 C 8.617188 -5.640625 8.621094 -5.726562 8.621094 -5.839844 L 8.621094 -27.792969 L 45.453125 -27.792969 L 45.453125 -5.839844 C 45.453125 -5.734375 45.457031 -5.660156 45.464844 -5.609375 C 45.457031 -5.652344 45.441406 -5.714844 45.414062 -5.796875 C 45.28125 -6.1875 45.050781 -6.550781 44.722656 -6.890625 C 44.347656 -7.285156 43.929688 -7.566406 43.46875 -7.730469 C 43.355469 -7.769531 43.261719 -7.796875 43.1875 -7.804688 C 43.214844 -7.800781 43.269531 -7.800781 43.355469 -7.800781 C 43.398438 -7.800781 43.4375 -7.800781 43.46875 -7.804688 C 43.378906 -7.789062 43.273438 -7.761719 43.152344 -7.714844 C 42.695312 -7.550781 42.285156 -7.277344 41.917969 -6.890625 C 41.589844 -6.550781 41.359375 -6.1875 41.230469 -5.796875 C 41.203125 -5.714844 41.183594 -5.652344 41.179688 -5.609375 C 41.183594 -5.660156 41.1875 -5.734375 41.1875 -5.839844 L 41.1875 -42.597656 C 41.1875 -42.722656 41.183594 -42.8125 41.175781 -42.875 C 41.179688 -42.839844 41.195312 -42.78125 41.222656 -42.703125 C 41.363281 -42.285156 41.613281 -41.890625 41.976562 -41.519531 C 42.347656 -41.140625 42.757812 -40.875 43.207031 -40.714844 C 43.320312 -40.671875 43.414062 -40.648438 43.496094 -40.632812 C 43.476562 -40.636719 43.429688 -40.640625 43.355469 -40.640625 C 43.261719 -40.640625 43.199219 -40.636719 43.160156 -40.632812 C 43.226562 -40.640625 43.3125 -40.664062 43.417969 -40.699219 C 43.867188 -40.859375 44.285156 -41.132812 44.664062 -41.519531 C 45.027344 -41.890625 45.277344 -42.285156 45.417969 -42.703125 C 45.445312 -42.78125 45.460938 -42.839844 45.464844 -42.875 C 45.457031 -42.8125 45.453125 -42.722656 45.453125 -42.597656 L 45.453125 -21.332031 L 8.621094 -21.332031 L 8.621094 -42.597656 C 8.621094 -42.722656 8.617188 -42.8125 8.609375 -42.875 C 8.613281 -42.839844 8.628906 -42.78125 8.65625 -42.703125 C 8.796875 -42.285156 9.046875 -41.890625 9.410156 -41.519531 C 9.789062 -41.132812 10.203125 -40.859375 10.65625 -40.699219 C 10.761719 -40.664062 10.847656 -40.640625 10.910156 -40.632812 C 10.875 -40.636719 10.8125 -40.640625 10.71875 -40.640625 C 10.644531 -40.640625 10.59375 -40.636719 10.574219 -40.632812 C 10.644531 -40.644531 10.734375 -40.667969 10.839844 -40.707031 C 11.261719 -40.855469 11.648438 -41.105469 12 -41.457031 C 12.367188 -41.824219 12.625 -42.222656 12.773438 -42.652344 C 12.804688 -42.738281 12.820312 -42.804688 12.828125 -42.851562 C 12.820312 -42.796875 12.816406 -42.710938 12.816406 -42.597656 L 12.816406 -5.839844 C 12.816406 -5.746094 12.820312 -5.675781 12.824219 -5.636719 C 12.816406 -5.6875 12.796875 -5.757812 12.765625 -5.847656 C 12.628906 -6.246094 12.394531 -6.613281 12.058594 -6.957031 C 11.710938 -7.3125 11.320312 -7.566406 10.890625 -7.722656 C 10.777344 -7.761719 10.679688 -7.789062 10.597656 -7.804688 C 10.613281 -7.800781 10.652344 -7.800781 10.71875 -7.800781 Z M 10.71875 -7.800781 "/></g></g><g style="fill:#ffffff;fill-opacity:1;"><g transform="translate(90.559648, 245.222312)"><path style="stroke:none" d="M 10.992188 8.417969 C 8.980469 8.417969 7.125 8.125 5.421875 7.542969 C 3.371094 6.839844 1.609375 5.75 0.128906 4.269531 C -1.34375 2.796875 -2.429688 1.050781 -3.132812 -0.972656 C -3.726562 -2.675781 -4.019531 -4.527344 -4.019531 -6.527344 L -4.019531 -41.910156 C -4.019531 -43.914062 -3.726562 -45.765625 -3.132812 -47.46875 C -2.429688 -49.488281 -1.34375 -51.238281 0.128906 -52.707031 C 1.609375 -54.1875 3.371094 -55.28125 5.421875 -55.984375 C 7.125 -56.566406 8.980469 -56.859375 10.992188 -56.859375 L 34.285156 -56.859375 C 36.019531 -56.859375 37.628906 -56.609375 39.113281 -56.117188 C 40.988281 -55.492188 42.597656 -54.503906 43.949219 -53.15625 C 45.273438 -51.832031 46.25 -50.261719 46.878906 -48.445312 C 47.394531 -46.957031 47.652344 -45.351562 47.652344 -43.628906 C 47.652344 -41.910156 47.402344 -40.308594 46.902344 -38.824219 C 46.289062 -37 45.332031 -35.421875 44.03125 -34.082031 C 42.683594 -32.699219 41.066406 -31.683594 39.179688 -31.035156 C 37.675781 -30.523438 36.042969 -30.265625 34.285156 -30.265625 L 16.488281 -30.265625 L 16.488281 -38.683594 L 24.910156 -38.683594 L 24.910156 -29.476562 L 16.488281 -29.476562 L 16.488281 -37.894531 L 32.773438 -37.894531 C 34.496094 -37.894531 36.097656 -37.644531 37.578125 -37.144531 C 39.402344 -36.53125 40.980469 -35.574219 42.320312 -34.273438 C 43.691406 -32.9375 44.703125 -31.339844 45.351562 -29.484375 C 45.875 -27.980469 46.140625 -26.351562 46.140625 -24.597656 C 46.140625 -22.84375 45.875 -21.214844 45.351562 -19.710938 C 44.703125 -17.855469 43.691406 -16.257812 42.320312 -14.921875 C 40.980469 -13.621094 39.402344 -12.664062 37.578125 -12.050781 C 36.097656 -11.550781 34.496094 -11.300781 32.773438 -11.300781 L 16.488281 -11.300781 L 16.488281 -19.71875 L 24.910156 -19.71875 L 24.910156 -9.757812 L 16.488281 -9.757812 L 16.488281 -18.175781 L 34.285156 -18.175781 C 36.042969 -18.175781 37.675781 -17.917969 39.179688 -17.402344 C 41.066406 -16.757812 42.683594 -15.742188 44.03125 -14.355469 C 45.320312 -13.03125 46.273438 -11.472656 46.886719 -9.679688 C 47.394531 -8.191406 47.652344 -6.59375 47.652344 -4.878906 C 47.652344 -3.148438 47.398438 -1.542969 46.894531 -0.0585938 C 46.269531 1.789062 45.285156 3.378906 43.949219 4.714844 C 42.597656 6.066406 40.988281 7.050781 39.113281 7.675781 C 37.628906 8.171875 36.019531 8.417969 34.285156 8.417969 Z M 10.992188 -8.417969 L 34.285156 -8.417969 C 34.304688 -8.417969 34.316406 -8.417969 34.324219 -8.417969 C 34.308594 -8.417969 34.285156 -8.414062 34.253906 -8.410156 C 34.113281 -8.390625 33.957031 -8.351562 33.789062 -8.296875 C 33.148438 -8.082031 32.566406 -7.714844 32.042969 -7.191406 C 31.53125 -6.675781 31.167969 -6.105469 30.953125 -5.472656 C 30.859375 -5.203125 30.8125 -5.003906 30.8125 -4.878906 C 30.8125 -4.722656 30.863281 -4.5 30.960938 -4.21875 C 31.160156 -3.628906 31.496094 -3.09375 31.960938 -2.613281 C 32.484375 -2.078125 33.070312 -1.699219 33.722656 -1.476562 C 33.988281 -1.382812 34.175781 -1.339844 34.285156 -1.339844 L 8.070312 -1.339844 L 8.070312 -28.136719 L 32.773438 -28.136719 C 32.65625 -28.136719 32.46875 -28.09375 32.210938 -28.007812 C 31.613281 -27.808594 31.070312 -27.46875 30.578125 -26.988281 C 30.054688 -26.480469 29.679688 -25.902344 29.453125 -25.257812 C 29.351562 -24.96875 29.300781 -24.746094 29.300781 -24.597656 C 29.300781 -24.449219 29.351562 -24.226562 29.453125 -23.9375 C 29.679688 -23.292969 30.054688 -22.714844 30.578125 -22.207031 C 31.070312 -21.726562 31.613281 -21.386719 32.210938 -21.1875 C 32.46875 -21.101562 32.65625 -21.058594 32.773438 -21.058594 L 8.070312 -21.058594 L 8.070312 -47.101562 L 34.285156 -47.101562 C 34.175781 -47.101562 33.988281 -47.054688 33.722656 -46.964844 C 33.070312 -46.742188 32.484375 -46.363281 31.960938 -45.824219 C 31.484375 -45.332031 31.144531 -44.789062 30.945312 -44.191406 C 30.855469 -43.933594 30.8125 -43.746094 30.8125 -43.628906 C 30.8125 -43.464844 30.867188 -43.234375 30.96875 -42.9375 C 31.183594 -42.3125 31.542969 -41.75 32.042969 -41.25 C 32.566406 -40.726562 33.148438 -40.355469 33.789062 -40.144531 C 33.957031 -40.085938 34.113281 -40.046875 34.253906 -40.027344 C 34.285156 -40.023438 34.308594 -40.019531 34.324219 -40.019531 C 34.316406 -40.019531 34.304688 -40.019531 34.285156 -40.019531 L 10.992188 -40.019531 C 10.867188 -40.019531 10.773438 -40.015625 10.707031 -40.007812 C 10.746094 -40.011719 10.800781 -40.027344 10.878906 -40.054688 C 11.289062 -40.195312 11.675781 -40.445312 12.035156 -40.804688 C 12.382812 -41.152344 12.628906 -41.53125 12.769531 -41.941406 C 12.800781 -42.027344 12.820312 -42.097656 12.828125 -42.144531 C 12.820312 -42.097656 12.816406 -42.019531 12.816406 -41.910156 L 12.816406 -6.527344 C 12.816406 -6.421875 12.820312 -6.34375 12.828125 -6.292969 C 12.820312 -6.34375 12.800781 -6.410156 12.769531 -6.5 C 12.628906 -6.90625 12.382812 -7.285156 12.035156 -7.636719 C 11.675781 -7.996094 11.289062 -8.242188 10.878906 -8.386719 C 10.800781 -8.410156 10.746094 -8.425781 10.707031 -8.433594 C 10.773438 -8.421875 10.867188 -8.417969 10.992188 -8.417969 Z M 10.992188 -8.417969 "/></g></g><g style="fill:#ffffff;fill-opacity:1;"><g transform="translate(128.964379, 245.222312)"><path style="stroke:none" d="M 6.664062 9.035156 C 3.496094 9.035156 0.710938 8.207031 -1.691406 6.550781 C -3.085938 5.585938 -4.234375 4.414062 -5.132812 3.023438 C -6.023438 1.65625 -6.632812 0.144531 -6.957031 -1.507812 C -7.523438 -4.394531 -7.132812 -7.378906 -5.789062 -10.453125 L -5.75 -10.539062 L 11.398438 -47.453125 C 12.867188 -50.640625 14.855469 -53.085938 17.359375 -54.785156 C 20 -56.578125 22.964844 -57.476562 26.246094 -57.476562 C 29.585938 -57.476562 32.566406 -56.550781 35.191406 -54.699219 C 37.535156 -53.042969 39.457031 -50.675781 40.960938 -47.589844 L 58.136719 -10.625 L 50.5 -7.078125 L 58.03125 -10.84375 C 59.589844 -7.726562 60.105469 -4.664062 59.585938 -1.65625 C 59.296875 0.0234375 58.714844 1.558594 57.84375 2.949219 C 56.9375 4.40625 55.761719 5.625 54.320312 6.609375 C 51.949219 8.226562 49.210938 9.035156 46.101562 9.035156 C 42.230469 9.035156 39.023438 7.96875 36.472656 5.835938 C 34.453125 4.144531 32.792969 1.761719 31.484375 -1.3125 L 15.851562 -38.078125 L 66.183594 -1.40625 L -14.125 -1.40625 L 36.417969 -37.714844 L 20.9375 -1.308594 C 19.613281 1.640625 18.113281 3.90625 16.441406 5.492188 C 13.945312 7.855469 10.6875 9.035156 6.664062 9.035156 Z M 6.664062 -7.800781 C 6.742188 -7.800781 6.792969 -7.800781 6.8125 -7.804688 C 6.730469 -7.792969 6.628906 -7.769531 6.503906 -7.730469 C 5.921875 -7.550781 5.375 -7.214844 4.859375 -6.730469 C 4.792969 -6.667969 4.746094 -6.617188 4.71875 -6.582031 C 4.746094 -6.617188 4.789062 -6.679688 4.839844 -6.761719 C 5.046875 -7.082031 5.246094 -7.460938 5.445312 -7.898438 L 9.15625 -16.625 L 16.902344 -13.328125 L 21.8125 -6.492188 L 16.933594 -2.988281 L 12.023438 -9.824219 L 12.023438 -18.242188 L 40.332031 -18.242188 L 40.332031 -9.824219 L 35.375 -3.019531 L 30.566406 -6.523438 L 35.523438 -13.328125 L 43.269531 -16.625 L 46.980469 -7.894531 C 47.167969 -7.457031 47.335938 -7.121094 47.492188 -6.890625 C 47.507812 -6.863281 47.523438 -6.84375 47.53125 -6.828125 C 47.53125 -6.832031 47.527344 -6.835938 47.519531 -6.847656 C 47.457031 -6.914062 47.378906 -6.992188 47.28125 -7.074219 C 46.875 -7.414062 46.460938 -7.648438 46.039062 -7.769531 C 45.960938 -7.792969 45.90625 -7.804688 45.871094 -7.808594 C 45.921875 -7.804688 46 -7.800781 46.101562 -7.800781 C 46.027344 -7.800781 45.910156 -7.777344 45.753906 -7.734375 C 45.433594 -7.644531 45.125 -7.5 44.824219 -7.296875 C 44.324219 -6.953125 43.90625 -6.511719 43.566406 -5.972656 C 43.269531 -5.5 43.082031 -5.015625 42.996094 -4.527344 C 42.921875 -4.097656 42.917969 -3.703125 42.988281 -3.34375 C 43.003906 -3.269531 43.019531 -3.214844 43.03125 -3.175781 C 43.023438 -3.203125 43 -3.25 42.972656 -3.3125 L 42.917969 -3.421875 L 25.824219 -40.21875 C 25.648438 -40.582031 25.484375 -40.855469 25.339844 -41.042969 C 25.324219 -41.0625 25.3125 -41.078125 25.300781 -41.089844 L 25.308594 -41.082031 C 25.351562 -41.039062 25.410156 -40.992188 25.480469 -40.941406 C 25.636719 -40.832031 25.8125 -40.746094 26 -40.691406 C 26.113281 -40.65625 26.195312 -40.640625 26.246094 -40.640625 C 26.414062 -40.640625 26.605469 -40.710938 26.820312 -40.855469 C 26.941406 -40.941406 27.019531 -41 27.050781 -41.042969 C 26.941406 -40.902344 26.8125 -40.675781 26.667969 -40.359375 L 9.558594 -3.53125 L 1.925781 -7.078125 L 9.636719 -3.703125 C 9.609375 -3.636719 9.589844 -3.585938 9.578125 -3.554688 C 9.585938 -3.582031 9.597656 -3.628906 9.605469 -3.6875 C 9.65625 -4.007812 9.640625 -4.359375 9.566406 -4.746094 C 9.472656 -5.230469 9.277344 -5.699219 8.980469 -6.152344 C 8.675781 -6.621094 8.308594 -7.007812 7.875 -7.304688 C 7.582031 -7.507812 7.277344 -7.652344 6.96875 -7.738281 C 6.824219 -7.78125 6.722656 -7.800781 6.664062 -7.800781 Z M 33.875 -31.996094 L 19.378906 2.617188 L 1.558594 -27.933594 L 50.867188 -27.933594 L 33.078125 2.5625 L 18.492188 -31.972656 L 26.246094 -35.246094 L 26.246094 -26.828125 L 26.109375 -26.828125 L 26.109375 -35.246094 Z M 20.507812 -43.664062 L 31.828125 -43.664062 L 42.039062 -19.492188 L 34.285156 -16.214844 L 27.015625 -20.457031 L 28.9375 -23.753906 L 36.210938 -19.511719 L 36.210938 -11.09375 L 16.214844 -11.09375 L 16.214844 -19.511719 L 23.488281 -23.753906 L 25.410156 -20.457031 L 18.140625 -16.214844 L 10.375 -19.46875 L 18.34375 -38.5 Z M 20.507812 -43.664062 "/></g></g><g style="fill:#ffffff;fill-opacity:1;"><g transform="translate(177.606048, 245.222312)"><path style="stroke:none" d="M 10.789062 8.417969 C 8.804688 8.417969 6.964844 8.113281 5.265625 7.507812 C 3.292969 6.800781 1.582031 5.722656 0.128906 4.269531 C -1.324219 2.816406 -2.402344 1.105469 -3.109375 -0.867188 C -3.71875 -2.566406 -4.019531 -4.410156 -4.019531 -6.390625 L -4.019531 -42.117188 C -4.019531 -44.097656 -3.726562 -45.929688 -3.140625 -47.613281 C -2.445312 -49.621094 -1.367188 -51.351562 0.09375 -52.8125 C 1.542969 -54.261719 3.257812 -55.335938 5.238281 -56.035156 C 6.921875 -56.628906 8.75 -56.925781 10.71875 -56.925781 C 12.703125 -56.925781 14.539062 -56.632812 16.226562 -56.039062 C 18.246094 -55.332031 19.984375 -54.234375 21.441406 -52.75 C 22.871094 -51.289062 23.925781 -49.558594 24.605469 -47.5625 C 25.171875 -45.894531 25.457031 -44.078125 25.457031 -42.117188 L 25.457031 -10.511719 L 17.039062 -10.511719 L 17.039062 -18.929688 L 33.804688 -18.929688 C 35.585938 -18.929688 37.242188 -18.675781 38.777344 -18.164062 C 40.632812 -17.546875 42.25 -16.582031 43.625 -15.273438 C 45.054688 -13.914062 46.109375 -12.292969 46.792969 -10.402344 C 47.367188 -8.828125 47.652344 -7.125 47.652344 -5.289062 C 47.652344 -3.464844 47.367188 -1.765625 46.800781 -0.191406 C 46.128906 1.675781 45.097656 3.292969 43.703125 4.652344 C 42.328125 5.992188 40.707031 6.984375 38.839844 7.621094 C 37.285156 8.152344 35.609375 8.417969 33.804688 8.417969 Z M 10.789062 -8.417969 L 33.804688 -8.417969 L 33.796875 -8.414062 C 33.675781 -8.394531 33.539062 -8.359375 33.390625 -8.308594 C 32.863281 -8.128906 32.382812 -7.824219 31.945312 -7.398438 C 31.488281 -6.957031 31.160156 -6.453125 30.957031 -5.890625 C 30.863281 -5.621094 30.8125 -5.421875 30.8125 -5.289062 C 30.8125 -5.152344 30.863281 -4.941406 30.964844 -4.660156 C 31.183594 -4.066406 31.535156 -3.535156 32.023438 -3.074219 C 32.457031 -2.65625 32.9375 -2.363281 33.453125 -2.191406 C 33.59375 -2.144531 33.71875 -2.113281 33.828125 -2.097656 C 33.84375 -2.09375 33.859375 -2.09375 33.867188 -2.09375 C 33.851562 -2.09375 33.832031 -2.09375 33.804688 -2.09375 L 8.621094 -2.09375 L 8.621094 -42.117188 C 8.621094 -42.222656 8.617188 -42.296875 8.609375 -42.34375 C 8.617188 -42.292969 8.636719 -42.222656 8.667969 -42.136719 C 8.808594 -41.71875 9.054688 -41.332031 9.410156 -40.96875 C 9.789062 -40.582031 10.203125 -40.308594 10.65625 -40.152344 C 10.761719 -40.113281 10.847656 -40.089844 10.910156 -40.082031 C 10.875 -40.085938 10.8125 -40.089844 10.71875 -40.089844 C 10.644531 -40.089844 10.59375 -40.085938 10.574219 -40.085938 C 10.644531 -40.09375 10.734375 -40.121094 10.839844 -40.15625 C 11.261719 -40.304688 11.648438 -40.554688 12 -40.90625 C 12.359375 -41.265625 12.613281 -41.660156 12.761719 -42.082031 C 12.792969 -42.179688 12.816406 -42.257812 12.824219 -42.316406 C 12.820312 -42.277344 12.816406 -42.210938 12.816406 -42.117188 L 12.816406 -6.390625 C 12.816406 -6.324219 12.816406 -6.28125 12.820312 -6.265625 C 12.808594 -6.339844 12.78125 -6.429688 12.746094 -6.535156 C 12.601562 -6.9375 12.363281 -7.304688 12.035156 -7.636719 C 11.703125 -7.964844 11.335938 -8.203125 10.933594 -8.347656 C 10.828125 -8.386719 10.738281 -8.410156 10.660156 -8.421875 C 10.679688 -8.417969 10.71875 -8.417969 10.789062 -8.417969 Z M 10.789062 -8.417969 "/></g></g><g style="fill:#ffffff;fill-opacity:1;"><g transform="translate(214.018336, 245.222312)"><path style="stroke:none" d="M 22.125 9.035156 C 20.136719 9.035156 18.292969 8.730469 16.589844 8.117188 C 14.605469 7.402344 12.886719 6.304688 11.4375 4.824219 C 10.015625 3.371094 8.957031 1.664062 8.269531 -0.300781 C 7.679688 -1.984375 7.382812 -3.808594 7.382812 -5.773438 L 7.382812 -38.132812 L 15.804688 -38.132812 L 15.804688 -29.714844 L 5.015625 -29.714844 C 3.226562 -29.714844 1.5625 -29.980469 0.0273438 -30.511719 C -1.84375 -31.15625 -3.457031 -32.160156 -4.820312 -33.519531 C -6.167969 -34.871094 -7.167969 -36.464844 -7.8125 -38.304688 C -8.355469 -39.84375 -8.625 -41.503906 -8.625 -43.285156 C -8.625 -45.082031 -8.355469 -46.75 -7.820312 -48.289062 C -7.164062 -50.179688 -6.136719 -51.804688 -4.742188 -53.164062 C -3.378906 -54.492188 -1.769531 -55.46875 0.0898438 -56.09375 C 1.609375 -56.601562 3.25 -56.859375 5.015625 -56.859375 L 39.234375 -56.859375 C 41 -56.859375 42.640625 -56.601562 44.15625 -56.09375 C 46.015625 -55.46875 47.628906 -54.492188 48.988281 -53.164062 C 50.382812 -51.804688 51.410156 -50.179688 52.070312 -48.289062 C 52.605469 -46.75 52.871094 -45.082031 52.871094 -43.285156 C 52.871094 -41.503906 52.601562 -39.84375 52.0625 -38.304688 C 51.414062 -36.464844 50.417969 -34.871094 49.066406 -33.519531 C 47.707031 -32.160156 46.089844 -31.15625 44.21875 -30.511719 C 42.683594 -29.980469 41.019531 -29.714844 39.234375 -29.714844 L 28.445312 -29.714844 L 28.445312 -38.132812 L 36.863281 -38.132812 L 36.863281 -5.773438 C 36.863281 -3.847656 36.585938 -2.058594 36.03125 -0.402344 C 35.378906 1.542969 34.367188 3.242188 33.003906 4.695312 C 31.542969 6.25 29.777344 7.394531 27.707031 8.128906 C 26.003906 8.734375 24.144531 9.035156 22.125 9.035156 Z M 22.125 -7.800781 C 22.226562 -7.800781 22.296875 -7.804688 22.339844 -7.808594 C 22.269531 -7.800781 22.183594 -7.773438 22.074219 -7.734375 C 21.582031 -7.5625 21.132812 -7.257812 20.726562 -6.828125 C 20.414062 -6.496094 20.195312 -6.140625 20.070312 -5.761719 C 20.042969 -5.679688 20.023438 -5.617188 20.015625 -5.566406 C 20.023438 -5.609375 20.027344 -5.679688 20.027344 -5.773438 L 20.027344 -46.550781 L 39.234375 -46.550781 C 39.25 -46.550781 39.257812 -46.550781 39.261719 -46.550781 C 39.242188 -46.550781 39.214844 -46.546875 39.183594 -46.542969 C 39.046875 -46.523438 38.894531 -46.484375 38.726562 -46.425781 C 38.152344 -46.226562 37.628906 -45.894531 37.160156 -45.425781 C 36.707031 -44.96875 36.375 -44.457031 36.175781 -43.886719 C 36.082031 -43.621094 36.035156 -43.417969 36.035156 -43.285156 C 36.035156 -43.300781 36.035156 -43.3125 36.035156 -43.3125 C 36.035156 -43.292969 36.039062 -43.265625 36.046875 -43.230469 C 36.066406 -43.085938 36.109375 -42.925781 36.167969 -42.75 C 36.382812 -42.140625 36.738281 -41.59375 37.238281 -41.105469 C 37.707031 -40.648438 38.226562 -40.324219 38.789062 -40.132812 C 38.945312 -40.082031 39.089844 -40.046875 39.214844 -40.027344 C 39.242188 -40.023438 39.261719 -40.019531 39.277344 -40.019531 C 39.269531 -40.019531 39.253906 -40.019531 39.234375 -40.019531 L 5.015625 -40.019531 C 4.996094 -40.019531 4.980469 -40.019531 4.972656 -40.019531 C 4.988281 -40.019531 5.007812 -40.023438 5.03125 -40.027344 C 5.160156 -40.046875 5.300781 -40.082031 5.457031 -40.132812 C 6.023438 -40.324219 6.539062 -40.648438 7.007812 -41.105469 C 7.511719 -41.59375 7.867188 -42.140625 8.078125 -42.75 C 8.140625 -42.925781 8.179688 -43.085938 8.203125 -43.230469 C 8.207031 -43.265625 8.210938 -43.292969 8.210938 -43.3125 C 8.210938 -43.3125 8.210938 -43.300781 8.210938 -43.285156 C 8.210938 -43.417969 8.164062 -43.621094 8.070312 -43.886719 C 7.871094 -44.457031 7.542969 -44.96875 7.085938 -45.425781 C 6.617188 -45.894531 6.097656 -46.226562 5.519531 -46.425781 C 5.355469 -46.484375 5.203125 -46.523438 5.0625 -46.542969 C 5.03125 -46.546875 5.007812 -46.550781 4.988281 -46.550781 C 4.992188 -46.550781 5 -46.550781 5.015625 -46.550781 L 24.222656 -46.550781 L 24.222656 -5.773438 C 24.222656 -5.695312 24.222656 -5.644531 24.226562 -5.621094 C 24.21875 -5.6875 24.195312 -5.769531 24.160156 -5.867188 C 24.023438 -6.261719 23.789062 -6.625 23.464844 -6.957031 C 23.117188 -7.3125 22.726562 -7.566406 22.296875 -7.722656 C 22.183594 -7.761719 22.085938 -7.789062 22.003906 -7.804688 C 22.019531 -7.800781 22.058594 -7.800781 22.125 -7.800781 Z M 22.125 -7.800781 "/></g></g><g style="fill:#ffffff;fill-opacity:1;"><g transform="translate(254.484186, 245.222312)"><path style="stroke:none" d="M 10.71875 9.035156 C 8.730469 9.035156 6.886719 8.730469 5.183594 8.117188 C 3.199219 7.402344 1.480469 6.304688 0.03125 4.824219 C -1.402344 3.363281 -2.460938 1.636719 -3.148438 -0.351562 C -3.730469 -2.039062 -4.019531 -3.867188 -4.019531 -5.839844 L -4.019531 -42.597656 C -4.019531 -44.589844 -3.730469 -46.425781 -3.152344 -48.113281 C -2.457031 -50.144531 -1.375 -51.894531 0.09375 -53.363281 C 1.542969 -54.8125 3.257812 -55.886719 5.238281 -56.585938 C 6.921875 -57.179688 8.75 -57.476562 10.71875 -57.476562 C 12.703125 -57.476562 14.539062 -57.179688 16.226562 -56.589844 C 18.246094 -55.882812 19.984375 -54.785156 21.441406 -53.296875 C 22.878906 -51.828125 23.9375 -50.082031 24.617188 -48.0625 C 25.175781 -46.390625 25.457031 -44.570312 25.457031 -42.597656 L 25.457031 -29.75 L 17.039062 -29.75 L 17.039062 -38.167969 L 37.035156 -38.167969 L 37.035156 -29.75 L 28.617188 -29.75 L 28.617188 -42.597656 C 28.617188 -44.570312 28.894531 -46.390625 29.457031 -48.0625 C 30.136719 -50.082031 31.195312 -51.828125 32.632812 -53.296875 C 34.089844 -54.785156 35.828125 -55.882812 37.847656 -56.589844 C 39.535156 -57.179688 41.371094 -57.476562 43.355469 -57.476562 C 45.332031 -57.476562 47.160156 -57.175781 48.847656 -56.578125 C 50.839844 -55.867188 52.5625 -54.773438 54.007812 -53.296875 C 55.445312 -51.828125 56.503906 -50.082031 57.183594 -48.0625 C 57.746094 -46.390625 58.027344 -44.570312 58.027344 -42.597656 L 58.027344 -5.839844 C 58.027344 -3.886719 57.742188 -2.074219 57.179688 -0.402344 C 56.507812 1.578125 55.472656 3.300781 54.066406 4.761719 C 52.625 6.269531 50.902344 7.382812 48.898438 8.109375 C 47.199219 8.726562 45.351562 9.035156 43.355469 9.035156 C 41.351562 9.035156 39.5 8.734375 37.796875 8.125 C 35.769531 7.398438 34.027344 6.277344 32.574219 4.761719 C 31.167969 3.300781 30.132812 1.578125 29.460938 -0.402344 C 28.898438 -2.074219 28.617188 -3.886719 28.617188 -5.839844 L 28.617188 -19.375 L 37.035156 -19.375 L 37.035156 -10.957031 L 17.039062 -10.957031 L 17.039062 -19.375 L 25.457031 -19.375 L 25.457031 -5.839844 C 25.457031 -1.558594 24.171875 1.953125 21.597656 4.695312 C 20.140625 6.25 18.375 7.394531 16.300781 8.128906 C 14.601562 8.734375 12.738281 9.035156 10.71875 9.035156 Z M 10.71875 -7.800781 C 10.820312 -7.800781 10.890625 -7.804688 10.933594 -7.808594 C 10.867188 -7.800781 10.777344 -7.773438 10.667969 -7.734375 C 10.175781 -7.5625 9.726562 -7.257812 9.320312 -6.828125 C 9 -6.484375 8.777344 -6.125 8.652344 -5.746094 C 8.628906 -5.671875 8.613281 -5.617188 8.609375 -5.582031 C 8.617188 -5.640625 8.621094 -5.726562 8.621094 -5.839844 L 8.621094 -27.792969 L 45.453125 -27.792969 L 45.453125 -5.839844 C 45.453125 -5.734375 45.457031 -5.660156 45.464844 -5.609375 C 45.457031 -5.652344 45.441406 -5.714844 45.414062 -5.796875 C 45.28125 -6.1875 45.050781 -6.550781 44.722656 -6.890625 C 44.347656 -7.285156 43.929688 -7.566406 43.46875 -7.730469 C 43.355469 -7.769531 43.261719 -7.796875 43.1875 -7.804688 C 43.214844 -7.800781 43.269531 -7.800781 43.355469 -7.800781 C 43.398438 -7.800781 43.4375 -7.800781 43.46875 -7.804688 C 43.378906 -7.789062 43.273438 -7.761719 43.152344 -7.714844 C 42.695312 -7.550781 42.285156 -7.277344 41.917969 -6.890625 C 41.589844 -6.550781 41.359375 -6.1875 41.230469 -5.796875 C 41.203125 -5.714844 41.183594 -5.652344 41.179688 -5.609375 C 41.183594 -5.660156 41.1875 -5.734375 41.1875 -5.839844 L 41.1875 -42.597656 C 41.1875 -42.722656 41.183594 -42.8125 41.175781 -42.875 C 41.179688 -42.839844 41.195312 -42.78125 41.222656 -42.703125 C 41.363281 -42.285156 41.613281 -41.890625 41.976562 -41.519531 C 42.347656 -41.140625 42.757812 -40.875 43.207031 -40.714844 C 43.320312 -40.671875 43.414062 -40.648438 43.496094 -40.632812 C 43.476562 -40.636719 43.429688 -40.640625 43.355469 -40.640625 C 43.261719 -40.640625 43.199219 -40.636719 43.160156 -40.632812 C 43.226562 -40.640625 43.3125 -40.664062 43.417969 -40.699219 C 43.867188 -40.859375 44.285156 -41.132812 44.664062 -41.519531 C 45.027344 -41.890625 45.277344 -42.285156 45.417969 -42.703125 C 45.445312 -42.78125 45.460938 -42.839844 45.464844 -42.875 C 45.457031 -42.8125 45.453125 -42.722656 45.453125 -42.597656 L 45.453125 -21.332031 L 8.621094 -21.332031 L 8.621094 -42.597656 C 8.621094 -42.722656 8.617188 -42.8125 8.609375 -42.875 C 8.613281 -42.839844 8.628906 -42.78125 8.65625 -42.703125 C 8.796875 -42.285156 9.046875 -41.890625 9.410156 -41.519531 C 9.789062 -41.132812 10.203125 -40.859375 10.65625 -40.699219 C 10.761719 -40.664062 10.847656 -40.640625 10.910156 -40.632812 C 10.875 -40.636719 10.8125 -40.640625 10.71875 -40.640625 C 10.644531 -40.640625 10.59375 -40.636719 10.574219 -40.632812 C 10.644531 -40.644531 10.734375 -40.667969 10.839844 -40.707031 C 11.261719 -40.855469 11.648438 -41.105469 12 -41.457031 C 12.367188 -41.824219 12.625 -42.222656 12.773438 -42.652344 C 12.804688 -42.738281 12.820312 -42.804688 12.828125 -42.851562 C 12.820312 -42.796875 12.816406 -42.710938 12.816406 -42.597656 L 12.816406 -5.839844 C 12.816406 -5.746094 12.820312 -5.675781 12.824219 -5.636719 C 12.816406 -5.6875 12.796875 -5.757812 12.765625 -5.847656 C 12.628906 -6.246094 12.394531 -6.613281 12.058594 -6.957031 C 11.710938 -7.3125 11.320312 -7.566406 10.890625 -7.722656 C 10.777344 -7.761719 10.679688 -7.789062 10.597656 -7.804688 C 10.613281 -7.800781 10.652344 -7.800781 10.71875 -7.800781 Z M 10.71875 -7.800781 "/></g></g><g style="fill:#3dbdec;fill-opacity:1;"><g transform="translate(40.337773, 245.222312)"><path style="stroke:none" d="M 10.71875 0.625 C 8.695312 0.625 7.132812 0.0625 6.03125 -1.0625 C 4.9375 -2.1875 4.390625 -3.78125 4.390625 -5.84375 L 4.390625 -42.59375 C 4.390625 -44.695312 4.9375 -46.296875 6.03125 -47.390625 C 7.132812 -48.492188 8.695312 -49.046875 10.71875 -49.046875 C 12.78125 -49.046875 14.347656 -48.492188 15.421875 -47.390625 C 16.492188 -46.296875 17.03125 -44.695312 17.03125 -42.59375 L 17.03125 -29.75 L 37.03125 -29.75 L 37.03125 -42.59375 C 37.03125 -44.695312 37.566406 -46.296875 38.640625 -47.390625 C 39.722656 -48.492188 41.296875 -49.046875 43.359375 -49.046875 C 45.367188 -49.046875 46.910156 -48.492188 47.984375 -47.390625 C 49.066406 -46.296875 49.609375 -44.695312 49.609375 -42.59375 L 49.609375 -5.84375 C 49.609375 -3.78125 49.066406 -2.1875 47.984375 -1.0625 C 46.910156 0.0625 45.367188 0.625 43.359375 0.625 C 41.296875 0.625 39.722656 0.0625 38.640625 -1.0625 C 37.566406 -2.1875 37.03125 -3.78125 37.03125 -5.84375 L 37.03125 -19.375 L 17.03125 -19.375 L 17.03125 -5.84375 C 17.03125 -3.78125 16.503906 -2.1875 15.453125 -1.0625 C 14.398438 0.0625 12.820312 0.625 10.71875 0.625 Z M 10.71875 0.625 "/></g></g><g style="fill:#3dbdec;fill-opacity:1;"><g transform="translate(90.559648, 245.222312)"><path style="stroke:none" d="M 11 0 C 8.84375 0 7.203125 -0.554688 6.078125 -1.671875 C 4.953125 -2.796875 4.390625 -4.414062 4.390625 -6.53125 L 4.390625 -41.90625 C 4.390625 -44.007812 4.953125 -45.625 6.078125 -46.75 C 7.203125 -47.875 8.84375 -48.4375 11 -48.4375 L 34.28125 -48.4375 C 35.925781 -48.4375 37.160156 -48.023438 37.984375 -47.203125 C 38.816406 -46.378906 39.234375 -45.1875 39.234375 -43.625 C 39.234375 -42.019531 38.816406 -40.796875 37.984375 -39.953125 C 37.160156 -39.109375 35.925781 -38.6875 34.28125 -38.6875 L 16.484375 -38.6875 L 16.484375 -29.46875 L 32.765625 -29.46875 C 34.367188 -29.46875 35.59375 -29.054688 36.4375 -28.234375 C 37.289062 -27.410156 37.71875 -26.195312 37.71875 -24.59375 C 37.71875 -22.988281 37.289062 -21.773438 36.4375 -20.953125 C 35.59375 -20.128906 34.367188 -19.71875 32.765625 -19.71875 L 16.484375 -19.71875 L 16.484375 -9.75 L 34.28125 -9.75 C 35.925781 -9.75 37.160156 -9.328125 37.984375 -8.484375 C 38.816406 -7.640625 39.234375 -6.4375 39.234375 -4.875 C 39.234375 -3.269531 38.816406 -2.054688 37.984375 -1.234375 C 37.160156 -0.410156 35.925781 0 34.28125 0 Z M 11 0 "/></g></g><g style="fill:#3dbdec;fill-opacity:1;"><g transform="translate(128.964379, 245.222312)"><path style="stroke:none" d="M 6.671875 0.625 C 5.242188 0.625 4.050781 0.289062 3.09375 -0.375 C 2.132812 -1.039062 1.539062 -1.957031 1.3125 -3.125 C 1.082031 -4.289062 1.285156 -5.609375 1.921875 -7.078125 L 19.03125 -43.90625 C 19.851562 -45.6875 20.867188 -46.988281 22.078125 -47.8125 C 23.296875 -48.632812 24.6875 -49.046875 26.25 -49.046875 C 27.800781 -49.046875 29.160156 -48.632812 30.328125 -47.8125 C 31.492188 -46.988281 32.515625 -45.6875 33.390625 -43.90625 L 50.5 -7.078125 C 51.226562 -5.609375 51.488281 -4.28125 51.28125 -3.09375 C 51.082031 -1.90625 50.507812 -0.988281 49.5625 -0.34375 C 48.625 0.300781 47.46875 0.625 46.09375 0.625 C 44.269531 0.625 42.863281 0.210938 41.875 -0.609375 C 40.882812 -1.441406 40.003906 -2.773438 39.234375 -4.609375 L 35.515625 -13.328125 L 40.328125 -9.828125 L 12.015625 -9.828125 L 16.90625 -13.328125 L 13.1875 -4.609375 C 12.363281 -2.773438 11.515625 -1.441406 10.640625 -0.609375 C 9.773438 0.210938 8.453125 0.625 6.671875 0.625 Z M 26.109375 -35.25 L 18.140625 -16.21875 L 16.21875 -19.515625 L 36.203125 -19.515625 L 34.28125 -16.21875 L 26.25 -35.25 Z M 26.109375 -35.25 "/></g></g><g style="fill:#3dbdec;fill-opacity:1;"><g transform="translate(177.606048, 245.222312)"><path style="stroke:none" d="M 10.78125 0 C 8.769531 0 7.203125 -0.554688 6.078125 -1.671875 C 4.953125 -2.796875 4.390625 -4.367188 4.390625 -6.390625 L 4.390625 -42.109375 C 4.390625 -44.171875 4.9375 -45.75 6.03125 -46.84375 C 7.132812 -47.945312 8.695312 -48.5 10.71875 -48.5 C 12.78125 -48.5 14.347656 -47.945312 15.421875 -46.84375 C 16.492188 -45.75 17.03125 -44.171875 17.03125 -42.109375 L 17.03125 -10.515625 L 33.796875 -10.515625 C 35.535156 -10.515625 36.875 -10.066406 37.8125 -9.171875 C 38.757812 -8.273438 39.234375 -6.984375 39.234375 -5.296875 C 39.234375 -3.597656 38.757812 -2.289062 37.8125 -1.375 C 36.875 -0.457031 35.535156 0 33.796875 0 Z M 10.78125 0 "/></g></g><g style="fill:#3dbdec;fill-opacity:1;"><g transform="translate(214.018336, 245.222312)"><path style="stroke:none" d="M 22.125 0.625 C 20.101562 0.625 18.539062 0.0625 17.4375 -1.0625 C 16.34375 -2.1875 15.796875 -3.753906 15.796875 -5.765625 L 15.796875 -38.125 L 5.015625 -38.125 C 3.316406 -38.125 2.019531 -38.570312 1.125 -39.46875 C 0.238281 -40.363281 -0.203125 -41.632812 -0.203125 -43.28125 C -0.203125 -44.976562 0.238281 -46.257812 1.125 -47.125 C 2.019531 -48 3.316406 -48.4375 5.015625 -48.4375 L 39.234375 -48.4375 C 40.921875 -48.4375 42.210938 -48 43.109375 -47.125 C 44.003906 -46.257812 44.453125 -44.976562 44.453125 -43.28125 C 44.453125 -41.632812 44.003906 -40.363281 43.109375 -39.46875 C 42.210938 -38.570312 40.921875 -38.125 39.234375 -38.125 L 28.4375 -38.125 L 28.4375 -5.765625 C 28.4375 -3.753906 27.910156 -2.1875 26.859375 -1.0625 C 25.804688 0.0625 24.226562 0.625 22.125 0.625 Z M 22.125 0.625 "/></g></g><g style="fill:#3dbdec;fill-opacity:1;"><g transform="translate(254.484186, 245.222312)"><path style="stroke:none" d="M 10.71875 0.625 C 8.695312 0.625 7.132812 0.0625 6.03125 -1.0625 C 4.9375 -2.1875 4.390625 -3.78125 4.390625 -5.84375 L 4.390625 -42.59375 C 4.390625 -44.695312 4.9375 -46.296875 6.03125 -47.390625 C 7.132812 -48.492188 8.695312 -49.046875 10.71875 -49.046875 C 12.78125 -49.046875 14.347656 -48.492188 15.421875 -47.390625 C 16.492188 -46.296875 17.03125 -44.695312 17.03125 -42.59375 L 17.03125 -29.75 L 37.03125 -29.75 L 37.03125 -42.59375 C 37.03125 -44.695312 37.566406 -46.296875 38.640625 -47.390625 C 39.722656 -48.492188 41.296875 -49.046875 43.359375 -49.046875 C 45.367188 -49.046875 46.910156 -48.492188 47.984375 -47.390625 C 49.066406 -46.296875 49.609375 -44.695312 49.609375 -42.59375 L 49.609375 -5.84375 C 49.609375 -3.78125 49.066406 -2.1875 47.984375 -1.0625 C 46.910156 0.0625 45.367188 0.625 43.359375 0.625 C 41.296875 0.625 39.722656 0.0625 38.640625 -1.0625 C 37.566406 -2.1875 37.03125 -3.78125 37.03125 -5.84375 L 37.03125 -19.375 L 17.03125 -19.375 L 17.03125 -5.84375 C 17.03125 -3.78125 16.503906 -2.1875 15.453125 -1.0625 C 14.398438 0.0625 12.820312 0.625 10.71875 0.625 Z M 10.71875 0.625 "/></g></g></g></svg>